<svg xmlns="http://www.w3.org/2000/svg" viewBox="0 0 1200 700" preserveAspectRatio="xMidYMid meet" font-family="IBM Plex Mono, ui-monospace, monospace">
  <defs>
    
  </defs>

  <rect class="frame" x="20" y="20" width="1160" height="660" rx="6"></rect>
  <text class="label" x="36" y="46">Phone shell · &lt; 900 px AND pointer: coarse · three snap points</text>

  

  
  <g transform="translate(120, 90)">
    <rect class="frame" x="0" y="0" width="280" height="560" rx="36"></rect>
    <text class="label" x="0" y="-12">Peek snap · default after navigate</text>

    
    <text class="dim" x="20" y="32">14:32 · ··· · ▣</text>

    
    <rect class="canvas" x="14" y="44" width="252" height="402" rx="8"></rect>

    
    <g transform="translate(140, 230)">
      <ellipse class="orbit" cx="0" cy="0" rx="40" ry="40"></ellipse>
      <ellipse class="orbit" cx="0" cy="0" rx="70" ry="70"></ellipse>
      <ellipse class="orbit" cx="0" cy="0" rx="105" ry="105"></ellipse>
      <circle class="star" cx="0" cy="0" r="7"></circle>
      <circle class="body" cx="40" cy="0" r="3"></circle>
      <circle class="body" cx="-70" cy="0" r="4"></circle>
      <circle class="body" cx="0" cy="105" r="5"></circle>
    </g>

    
    <rect class="chip" x="78" y="60" width="124" height="22" rx="11"></rect>
    <text class="text" x="100" y="75" font-size="10">2026-05-20 ⏸</text>

    
    <circle class="fab" cx="240" cy="402" r="20"></circle>
    <text fill="#0a0c10" x="234" y="408" font-size="18" font-weight="bold">+</text>

    
    <rect class="sheet" x="14" y="446" width="252" height="100" rx="12"></rect>
    <rect fill="#5b6473" x="124" y="456" width="32" height="3" rx="1.5"></rect>
    <text class="head" x="28" y="486">Mars</text>
    <text class="dim" x="28" y="504">planet · terrestrial · 0.38 g</text>
    <text class="dim" x="28" y="522">tap or drag up for details</text>
  </g>

  
  <g transform="translate(460, 90)">
    <rect class="frame" x="0" y="0" width="280" height="560" rx="36"></rect>
    <text class="label" x="0" y="-12">Half snap · 50% screen</text>

    <text class="dim" x="20" y="32">14:32 · ··· · ▣</text>
    <rect class="canvas" x="14" y="44" width="252" height="226" rx="8"></rect>

    <g transform="translate(140, 156)">
      <ellipse class="orbit" cx="0" cy="0" rx="32" ry="32"></ellipse>
      <ellipse class="orbit" cx="0" cy="0" rx="60" ry="60"></ellipse>
      <circle class="star" cx="0" cy="0" r="6"></circle>
      <circle class="body" cx="60" cy="0" r="4"></circle>
    </g>

    <rect class="chip" x="78" y="56" width="124" height="22" rx="11"></rect>
    <text class="text" x="100" y="71" font-size="10">2026-05-20 ⏸</text>

    
    <rect class="sheet" x="14" y="270" width="252" height="276" rx="12"></rect>
    <rect fill="#5b6473" x="124" y="280" width="32" height="3" rx="1.5"></rect>
    <text class="head" x="28" y="306">Mars</text>
    <text class="dim" x="28" y="322">planet · terrestrial · 38 hab</text>

    <g transform="translate(28, 340)">
      <rect class="chip" x="0" y="0" width="44" height="22" rx="4" fill="#1d222b"></rect>
      <rect class="chip" x="48" y="0" width="44" height="22" rx="4" fill="#11141a"></rect>
      <rect class="chip" x="96" y="0" width="44" height="22" rx="4" fill="#11141a"></rect>
      <rect class="chip" x="144" y="0" width="44" height="22" rx="4" fill="#11141a"></rect>
      <text class="text" x="9" y="15" font-size="9">Basics</text>
      <text class="dim" x="55" y="15" font-size="9">Orbit</text>
      <text class="dim" x="105" y="15" font-size="9">Atmo</text>
      <text class="dim" x="156" y="15" font-size="9">More</text>
    </g>

    <g transform="translate(28, 378)" fill="#b6bcc7" font-size="11">
      <text y="0">Radius    · 3,389 km</text>
      <text y="18">Gravity  · 0.38 g</text>
      <text y="36">Day      · 24.6 h</text>
      <text y="54">Eq T     · 210 K</text>
      <text y="72">Surface  · 215 K  ⓘ</text>
      <text y="90">Pressure · 0.006 bar</text>
      <text y="108">Δv LO   · 4.1 km/s</text>
      <text y="126">Δv land · 4.0 km/s</text>
    </g>

    <circle class="fab" cx="240" cy="242" r="18"></circle>
    <text fill="#0a0c10" x="235" y="248" font-size="16" font-weight="bold">+</text>
  </g>

  
  <g transform="translate(800, 90)">
    <rect class="frame" x="0" y="0" width="280" height="560" rx="36"></rect>
    <text class="label" x="0" y="-12">Full snap · scrollable</text>

    <text class="dim" x="20" y="32">14:32 · ··· · ▣</text>

    
    <rect class="sheet" x="14" y="44" width="252" height="502" rx="12"></rect>
    <rect fill="#5b6473" x="124" y="54" width="32" height="3" rx="1.5"></rect>

    <g transform="translate(28, 80)">
      <text class="head" x="0" y="0">Mars</text>
      <text class="dim" x="0" y="20">planet · terrestrial · habitability 38</text>
    </g>

    
    <text class="dim" x="232" y="82">▾</text>

    <g transform="translate(28, 124)">
      <rect class="chip" x="0" y="0" width="44" height="22" rx="4" fill="#1d222b"></rect>
      <rect class="chip" x="48" y="0" width="44" height="22" rx="4" fill="#11141a"></rect>
      <rect class="chip" x="96" y="0" width="44" height="22" rx="4" fill="#11141a"></rect>
      <rect class="chip" x="144" y="0" width="44" height="22" rx="4" fill="#11141a"></rect>
      <text class="text" x="9" y="15" font-size="9">Basics</text>
      <text class="dim" x="55" y="15" font-size="9">Orbit</text>
      <text class="dim" x="105" y="15" font-size="9">Atmo</text>
      <text class="dim" x="156" y="15" font-size="9">More</text>
    </g>

    <g transform="translate(28, 168)" fill="#b6bcc7" font-size="11">
      <text y="0">Mass        · 6.39e23 kg</text>
      <text y="18">Radius     · 3,389 km</text>
      <text y="36">Gravity    · 0.38 g</text>
      <text y="54">Day length · 24.6 h</text>
      <text y="72">Axial tilt · 25.2°</text>
      <text y="90">Sma        · 1.52 AU</text>
      <text y="108">Ecc       · 0.093</text>
      <text y="126">Eq T      · 210 K</text>
      <text y="144">Surface T · 215 K ⓘ</text>
      <text y="162">Pressure  · 0.006 bar</text>
      <text y="180">Albedo    · 0.25</text>
      <text y="198">Magneto   · — (none)</text>
      <text y="216">Stability · Stable</text>
      <text y="234">Δv to LO  · 4.1 km/s</text>
      <text y="252">Δv land   · 4.0 km/s</text>
      <text y="270">Radiation · 16 mSv/yr</text>
    </g>

    <text class="dim" x="28" y="462">Tap ⓘ for derivation appendix</text>
  </g>

  
  <g fill="#88ccff" font-size="11" font-family="IBM Plex Mono, monospace">
    <text x="120" y="678">Default after pick · canvas is hero · sheet peeks</text>
    <text x="460" y="678">Tap title or swipe up · canvas keeps focus context</text>
    <text x="800" y="678">Swipe again or tap ▾ to dismiss · full data depth</text>
  </g>
</svg>