<svg xmlns="http://www.w3.org/2000/svg" viewBox="0 0 1200 700" preserveAspectRatio="xMidYMid meet" font-family="IBM Plex Mono, ui-monospace, monospace">
  <defs>
    
  </defs>

  
  <rect class="frame" x="20" y="20" width="1160" height="660" rx="6"></rect>

  
  <text class="label" x="36" y="46">Desktop / Tablet shell · ≥ 900 px · any pointer</text>

  
  <rect class="panel" x="36" y="70" width="64" height="592" rx="4"></rect>
  <text class="label" x="48" y="92">Rail</text>
  <g transform="translate(50, 110)">
    <rect class="chip" x="0" y="0" width="36" height="36" rx="4"></rect>
    <rect class="chip" x="0" y="48" width="36" height="36" rx="4"></rect>
    <rect class="chip" x="0" y="96" width="36" height="36" rx="4"></rect>
    <rect class="chip" x="0" y="144" width="36" height="36" rx="4"></rect>
    <rect class="chip" x="0" y="192" width="36" height="36" rx="4"></rect>
    <rect class="chip" x="0" y="240" width="36" height="36" rx="4"></rect>
  </g>
  <text class="dim" x="50" y="430">Starmap</text>
  <text class="dim" x="50" y="448">System</text>
  <text class="dim" x="50" y="466">Bodies</text>
  <text class="dim" x="50" y="484">Ships</text>
  <text class="dim" x="50" y="502">Routes</text>
  <text class="dim" x="50" y="520">Settings</text>

  
  <rect class="panel" x="116" y="70" width="708" height="50" rx="4"></rect>
  <text class="label" x="132" y="92">Time strip</text>
  <text class="text" x="132" y="108">2026-05-20 14:32 UTC · master · ◀ ⏸ ▶ · scrub ━━━●━━━━━━━━━━━ +1d/s</text>

  
  <rect class="canvas" x="116" y="136" width="708" height="478" rx="4"></rect>
  <text class="label" x="132" y="158">Orbital canvas (gestures)</text>

  
  <g transform="translate(470, 376)">
    <ellipse class="orbit" cx="0" cy="0" rx="50" ry="50"></ellipse>
    <ellipse class="orbit" cx="0" cy="0" rx="100" ry="100"></ellipse>
    <ellipse class="orbit" cx="0" cy="0" rx="150" ry="150"></ellipse>
    <ellipse class="orbit" cx="0" cy="0" rx="210" ry="210"></ellipse>
    <circle class="star" cx="0" cy="0" r="8"></circle>
    <circle class="body" cx="50" cy="0" r="3"></circle>
    <circle class="body" cx="-100" cy="0" r="4"></circle>
    <circle class="body" cx="0" cy="150" r="5"></circle>
    <circle class="body" cx="-150" cy="-150" r="6"></circle>
  </g>

  
  <circle class="accent" cx="320" cy="376" r="22"></circle>
  <line class="accent" x1="320" y1="354" x2="320" y2="320"></line>
  <text class="dim" x="262" y="312">Selected · Mars</text>

  
  <rect class="chip" x="746" y="156" width="64" height="22" rx="11"></rect>
  <text class="text" x="755" y="171" font-size="10">Names</text>
  <rect class="chip" x="746" y="184" width="64" height="22" rx="11"></rect>
  <text class="text" x="755" y="199" font-size="10">Zones</text>
  <rect class="chip" x="746" y="212" width="64" height="22" rx="11"></rect>
  <text class="text" x="755" y="227" font-size="10">L-pts</text>
  <rect class="chip" x="746" y="240" width="64" height="22" rx="11"></rect>
  <text class="text" x="755" y="255" font-size="10">Sensors</text>

  
  <rect class="panel" x="116" y="624" width="708" height="38" rx="4"></rect>
  <text class="label" x="132" y="647">Bottom bar</text>
  <text class="text" x="200" y="647">Toytown ───●───── · Reset · Add · Plan · Open Projector</text>

  
  <rect class="panel" x="840" y="70" width="324" height="592" rx="4"></rect>
  <text class="label" x="858" y="92">Detail panel (collapsible)</text>
  <text class="head" x="858" y="120">Mars</text>
  <text class="dim" x="858" y="138">planet / terrestrial · habitability 38</text>

  
  <g transform="translate(858, 158)">
    <rect class="chip" x="0" y="0" width="48" height="24" rx="4" fill="#1d222b"></rect>
    <rect class="chip" x="52" y="0" width="48" height="24" rx="4" fill="#11141a"></rect>
    <rect class="chip" x="104" y="0" width="48" height="24" rx="4" fill="#11141a"></rect>
    <rect class="chip" x="156" y="0" width="48" height="24" rx="4" fill="#11141a"></rect>
    <rect class="chip" x="208" y="0" width="48" height="24" rx="4" fill="#11141a"></rect>
    <text class="text" x="9" y="16" font-size="10">Basics</text>
    <text class="dim" x="59" y="16" font-size="10">Orbit</text>
    <text class="dim" x="111" y="16" font-size="10">Atmo</text>
    <text class="dim" x="160" y="16" font-size="10">Hydro</text>
    <text class="dim" x="214" y="16" font-size="10">Bio</text>
  </g>

  
  <g transform="translate(858, 200)" fill="#b6bcc7" font-size="11">
    <text y="0">Mass     · 6.39 × 10²³ kg</text>
    <text y="22">Radius   · 3,389 km</text>
    <text y="44">Gravity  · 0.38 g</text>
    <text y="66">Day      · 24.6 h</text>
    <text y="88">Sma      · 1.52 AU</text>
    <text y="110">Ecc      · 0.093</text>
    <text y="132">Eq T     · 210 K</text>
    <text y="154">Surface T · 215 K  ⓘ</text>
    <text y="176">Pressure · 0.006 bar</text>
    <text y="198">Δv to LO · 4.1 km/s</text>
    <text y="220">Δv land  · 4.0 km/s</text>
  </g>

  <text class="dim" x="858" y="450">Tap any value with ⓘ for derivation →</text>

  
  <g fill="#88ccff" font-size="10" font-family="IBM Plex Mono, monospace">
    <text x="36" y="678">A · Persistent narrow rail (icons + popover tooltips on tap)</text>
    <text x="448" y="678">B · Canvas drives the whole experience</text>
    <text x="840" y="678">C · Right panel collapses to its header</text>
  </g>
</svg>